<svg width="509" height="509" viewBox="0 0 509 509" fill="none" xmlns="http://www.w3.org/2000/svg">
<g clip-path="url(#clip0_53_86)">
<rect width="509" height="509" rx="86" fill="#528BFE"/>
<path d="M389 243.122V324.798C389 342.751 374.446 357.305 356.492 357.305H152.508C134.554 357.305 120 342.751 120 324.798V184.202C120 166.249 134.554 151.695 152.508 151.695H254.5H295.134" stroke="white" stroke-width="31" stroke-linecap="round"/>
<path d="M187.078 224.43L255.344 282.538L368.308 176.888" stroke="white" stroke-width="36" stroke-linecap="round"/>
<path d="M187.848 309.368C193.901 303.315 193.901 293.501 187.848 287.448C181.795 281.394 171.981 281.394 165.928 287.448L176.888 298.408L187.848 309.368ZM129.752 345.544L140.712 356.504L187.848 309.368L176.888 298.408L165.928 287.448L118.792 334.584L129.752 345.544Z" fill="white"/>
<path d="M343.247 287.214C337.194 281.161 327.38 281.161 321.327 287.214C315.273 293.267 315.273 303.081 321.327 309.134L332.287 298.174L343.247 287.214ZM384.299 350.186L395.259 339.226L343.247 287.214L332.287 298.174L321.327 309.134L373.339 361.146L384.299 350.186Z" fill="white"/>
</g>
<defs>
<clipPath id="clip0_53_86">
<rect width="509" height="509" fill="white"/>
</clipPath>
</defs>
</svg>
